<?xml version="1.0" encoding="iso-8859-1"?>
<!-- Generator: Adobe Illustrator 17.1.0, SVG Export Plug-In . SVG Version: 6.00 Build 0)  -->
<!DOCTYPE svg PUBLIC "-//W3C//DTD SVG 1.1//EN" "http://www.w3.org/Graphics/SVG/1.1/DTD/svg11.dtd">
<svg version="1.1" id="Capa_1" xmlns="http://www.w3.org/2000/svg" xmlns:xlink="http://www.w3.org/1999/xlink" x="0px" y="0px"
	 viewBox="0 0 189.013 189.013" style="enable-background:new 0 0 189.013 189.013;" xml:space="preserve">
<path d="M176.506,0h-14.667c-2.761,0-5,2.239-5,5v101.397h-29.666H12.506c-2.761,0-5,2.239-5,5v12c0,2.761,2.239,5,5,5h3.036
	l17.591,57.087c0.662,2.148,2.64,3.529,4.777,3.529c0.487,0,0.983-0.072,1.474-0.223c2.639-0.813,4.119-3.612,3.306-6.251
	l-3.447-11.185h12.053l1.526,13.23c0.294,2.549,2.456,4.428,4.961,4.428c0.191,0,0.385-0.011,0.579-0.033
	c2.743-0.316,4.71-2.797,4.395-5.54l-1.394-12.085h17.262l-1.394,12.085c-0.316,2.743,1.651,5.224,4.395,5.54
	c0.195,0.023,0.388,0.033,0.579,0.033c2.505,0,4.667-1.879,4.961-4.428l1.526-13.23h12.053l-3.447,11.185
	c-0.813,2.639,0.667,5.438,3.306,6.251c0.491,0.151,0.987,0.223,1.474,0.223c2.137,0,4.115-1.38,4.777-3.529l17.592-57.087h2.726
	c2.761,0,5-2.239,5-5v-7h24.666v15.936c0,2.761,2.239,5,5,5h14.667c2.761,0,5-2.239,5-5V5C181.506,2.239,179.268,0,176.506,0z
	 M83.58,128.397l-1.27,11.009H57.679l-1.27-11.009H83.58z M46.343,128.397l1.27,11.009H29.399l-3.392-11.009H46.343z M32.48,149.406
	h16.285l1.378,11.947H36.162L32.48,149.406z M58.832,149.406h22.324l-1.378,11.947H60.21L58.832,149.406z M91.223,149.406h16.285
	l-3.682,11.947H89.846L91.223,149.406z M110.59,139.406H92.377l1.27-11.009h20.336L110.59,139.406z"/>
<g>
</g>
<g>
</g>
<g>
</g>
<g>
</g>
<g>
</g>
<g>
</g>
<g>
</g>
<g>
</g>
<g>
</g>
<g>
</g>
<g>
</g>
<g>
</g>
<g>
</g>
<g>
</g>
<g>
</g>
</svg>
